<mxfile host="app.diagrams.net" modified="2023-04-13T04:02:47.427Z" agent="Mozilla/5.0 (Macintosh; Intel Mac OS X 10_15_7) AppleWebKit/605.1.15 (KHTML, like Gecko) Version/16.3 Safari/605.1.15" etag="Ok20e61gvSSWWpenJot1" version="21.1.7" type="github">
  <diagram name="Page-1" id="rwWXIa1V0GOEBrqRVaI-">
    <mxGraphModel dx="2714" dy="970" grid="1" gridSize="10" guides="1" tooltips="1" connect="1" arrows="1" fold="1" page="1" pageScale="1" pageWidth="850" pageHeight="1100" math="0" shadow="0">
      <root>
        <mxCell id="0" />
        <mxCell id="1" parent="0" />
        <mxCell id="ceVRnK8p8HnaXM6WS_Wv-2" value="" style="rounded=0;whiteSpace=wrap;html=1;" parent="1" vertex="1">
          <mxGeometry x="40" y="80" width="320" height="440" as="geometry" />
        </mxCell>
        <mxCell id="ceVRnK8p8HnaXM6WS_Wv-3" value="Documents List" style="text;strokeColor=none;fillColor=none;html=1;fontSize=24;fontStyle=1;verticalAlign=middle;align=center;" parent="1" vertex="1">
          <mxGeometry x="150" y="30" width="90" height="40" as="geometry" />
        </mxCell>
        <mxCell id="ceVRnK8p8HnaXM6WS_Wv-4" value="Documents" style="text;strokeColor=none;fillColor=none;html=1;fontSize=24;fontStyle=1;verticalAlign=middle;align=center;" parent="1" vertex="1">
          <mxGeometry x="150" y="80" width="100" height="40" as="geometry" />
        </mxCell>
        <mxCell id="ceVRnK8p8HnaXM6WS_Wv-5" value="" style="verticalLabelPosition=bottom;verticalAlign=top;html=1;shape=mxgraph.basic.rect;fillColor2=none;strokeWidth=1;size=5;indent=5;" parent="1" vertex="1">
          <mxGeometry x="320" y="85" width="30" height="30" as="geometry" />
        </mxCell>
        <mxCell id="ceVRnK8p8HnaXM6WS_Wv-6" value="+" style="text;strokeColor=none;align=center;fillColor=none;html=1;verticalAlign=middle;whiteSpace=wrap;rounded=0;" parent="1" vertex="1">
          <mxGeometry x="305" y="85" width="60" height="30" as="geometry" />
        </mxCell>
        <mxCell id="ceVRnK8p8HnaXM6WS_Wv-7" value="" style="rounded=0;whiteSpace=wrap;html=1;" parent="1" vertex="1">
          <mxGeometry x="60" y="150" width="100" height="60" as="geometry" />
        </mxCell>
        <mxCell id="ceVRnK8p8HnaXM6WS_Wv-11" value="Image" style="text;strokeColor=none;align=center;fillColor=none;html=1;verticalAlign=middle;whiteSpace=wrap;rounded=0;" parent="1" vertex="1">
          <mxGeometry x="80" y="165" width="60" height="30" as="geometry" />
        </mxCell>
        <mxCell id="ceVRnK8p8HnaXM6WS_Wv-12" value="Type of document" style="text;strokeColor=none;align=left;fillColor=none;html=1;verticalAlign=middle;whiteSpace=wrap;rounded=0;" parent="1" vertex="1">
          <mxGeometry x="175" y="150" width="130" height="30" as="geometry" />
        </mxCell>
        <mxCell id="ceVRnK8p8HnaXM6WS_Wv-13" value="Additional notes" style="text;strokeColor=none;align=left;fillColor=none;html=1;verticalAlign=middle;whiteSpace=wrap;rounded=0;" parent="1" vertex="1">
          <mxGeometry x="175" y="180" width="110" height="30" as="geometry" />
        </mxCell>
        <mxCell id="ceVRnK8p8HnaXM6WS_Wv-14" value="" style="line;strokeWidth=2;html=1;" parent="1" vertex="1">
          <mxGeometry x="50" y="130" width="300" height="10" as="geometry" />
        </mxCell>
        <mxCell id="ceVRnK8p8HnaXM6WS_Wv-15" value="" style="line;strokeWidth=2;html=1;" parent="1" vertex="1">
          <mxGeometry x="50" y="220" width="300" height="10" as="geometry" />
        </mxCell>
        <mxCell id="ceVRnK8p8HnaXM6WS_Wv-16" value="" style="rounded=0;whiteSpace=wrap;html=1;" parent="1" vertex="1">
          <mxGeometry x="60" y="240" width="100" height="60" as="geometry" />
        </mxCell>
        <mxCell id="ceVRnK8p8HnaXM6WS_Wv-18" value="$ amount of claim&lt;br&gt;" style="text;strokeColor=none;align=left;fillColor=none;html=1;verticalAlign=middle;whiteSpace=wrap;rounded=0;" parent="1" vertex="1">
          <mxGeometry x="175" y="240" width="165" height="30" as="geometry" />
        </mxCell>
        <mxCell id="ceVRnK8p8HnaXM6WS_Wv-19" value="Additional notes" style="text;strokeColor=none;align=left;fillColor=none;html=1;verticalAlign=middle;whiteSpace=wrap;rounded=0;" parent="1" vertex="1">
          <mxGeometry x="175" y="270" width="110" height="30" as="geometry" />
        </mxCell>
        <mxCell id="ceVRnK8p8HnaXM6WS_Wv-20" value="" style="line;strokeWidth=2;html=1;" parent="1" vertex="1">
          <mxGeometry x="50" y="310" width="300" height="10" as="geometry" />
        </mxCell>
        <mxCell id="ceVRnK8p8HnaXM6WS_Wv-21" value="" style="line;strokeWidth=2;html=1;" parent="1" vertex="1">
          <mxGeometry x="50" y="410" width="300" height="10" as="geometry" />
        </mxCell>
        <mxCell id="ceVRnK8p8HnaXM6WS_Wv-22" value="Image" style="text;strokeColor=none;align=center;fillColor=none;html=1;verticalAlign=middle;whiteSpace=wrap;rounded=0;" parent="1" vertex="1">
          <mxGeometry x="80" y="255" width="60" height="30" as="geometry" />
        </mxCell>
        <mxCell id="ceVRnK8p8HnaXM6WS_Wv-23" value="" style="rounded=0;whiteSpace=wrap;html=1;" parent="1" vertex="1">
          <mxGeometry x="480" y="80" width="320" height="440" as="geometry" />
        </mxCell>
        <mxCell id="ceVRnK8p8HnaXM6WS_Wv-26" value="Document Detail" style="text;strokeColor=none;fillColor=none;html=1;fontSize=24;fontStyle=1;verticalAlign=middle;align=center;" parent="1" vertex="1">
          <mxGeometry x="505" y="20" width="270" height="40" as="geometry" />
        </mxCell>
        <mxCell id="ceVRnK8p8HnaXM6WS_Wv-27" value="Document Detail" style="text;strokeColor=none;fillColor=none;html=1;fontSize=24;fontStyle=1;verticalAlign=middle;align=center;" parent="1" vertex="1">
          <mxGeometry x="510" y="85" width="270" height="40" as="geometry" />
        </mxCell>
        <mxCell id="ceVRnK8p8HnaXM6WS_Wv-32" value="" style="endArrow=classic;html=1;rounded=0;" parent="1" edge="1">
          <mxGeometry relative="1" as="geometry">
            <mxPoint x="340" y="179.5" as="sourcePoint" />
            <mxPoint x="480" y="180" as="targetPoint" />
          </mxGeometry>
        </mxCell>
        <mxCell id="ceVRnK8p8HnaXM6WS_Wv-34" value="" style="verticalLabelPosition=bottom;verticalAlign=top;html=1;shape=mxgraph.basic.rect;fillColor2=none;strokeWidth=1;size=20;indent=5;" parent="1" vertex="1">
          <mxGeometry x="480" y="130" width="320" height="170" as="geometry" />
        </mxCell>
        <mxCell id="ceVRnK8p8HnaXM6WS_Wv-35" value="Large Image" style="text;strokeColor=none;align=center;fillColor=none;html=1;verticalAlign=middle;whiteSpace=wrap;rounded=0;" parent="1" vertex="1">
          <mxGeometry x="545" y="200" width="190" height="30" as="geometry" />
        </mxCell>
        <mxCell id="ceVRnK8p8HnaXM6WS_Wv-36" value="Type of document or $ amount of claim" style="text;strokeColor=none;align=left;fillColor=none;html=1;verticalAlign=middle;whiteSpace=wrap;rounded=0;" parent="1" vertex="1">
          <mxGeometry x="490" y="310" width="290" height="30" as="geometry" />
        </mxCell>
        <mxCell id="ceVRnK8p8HnaXM6WS_Wv-37" value="Additional notes" style="text;strokeColor=none;align=left;fillColor=none;html=1;verticalAlign=middle;whiteSpace=wrap;rounded=0;" parent="1" vertex="1">
          <mxGeometry x="490" y="340" width="110" height="30" as="geometry" />
        </mxCell>
        <mxCell id="ceVRnK8p8HnaXM6WS_Wv-38" value="" style="rounded=0;whiteSpace=wrap;html=1;" parent="1" vertex="1">
          <mxGeometry x="520" y="470" width="100" height="30" as="geometry" />
        </mxCell>
        <mxCell id="ceVRnK8p8HnaXM6WS_Wv-39" value="Edit" style="text;strokeColor=none;align=center;fillColor=none;html=1;verticalAlign=middle;whiteSpace=wrap;rounded=0;" parent="1" vertex="1">
          <mxGeometry x="540" y="470" width="60" height="30" as="geometry" />
        </mxCell>
        <mxCell id="ceVRnK8p8HnaXM6WS_Wv-40" value="" style="rounded=0;whiteSpace=wrap;html=1;" parent="1" vertex="1">
          <mxGeometry x="660" y="470" width="100" height="30" as="geometry" />
        </mxCell>
        <mxCell id="ceVRnK8p8HnaXM6WS_Wv-41" value="Submit" style="text;strokeColor=none;align=center;fillColor=none;html=1;verticalAlign=middle;whiteSpace=wrap;rounded=0;" parent="1" vertex="1">
          <mxGeometry x="680" y="470" width="60" height="30" as="geometry" />
        </mxCell>
        <mxCell id="ceVRnK8p8HnaXM6WS_Wv-42" value="" style="rounded=0;whiteSpace=wrap;html=1;" parent="1" vertex="1">
          <mxGeometry x="40" y="600" width="320" height="440" as="geometry" />
        </mxCell>
        <mxCell id="ceVRnK8p8HnaXM6WS_Wv-44" value="Add/Edit Document" style="text;strokeColor=none;fillColor=none;html=1;fontSize=24;fontStyle=1;verticalAlign=middle;align=center;" parent="1" vertex="1">
          <mxGeometry x="170" y="550" width="90" height="40" as="geometry" />
        </mxCell>
        <mxCell id="ceVRnK8p8HnaXM6WS_Wv-47" value="" style="endArrow=classic;html=1;rounded=0;entryX=1.003;entryY=0.027;entryDx=0;entryDy=0;entryPerimeter=0;exitX=0;exitY=0.75;exitDx=0;exitDy=0;" parent="1" source="ceVRnK8p8HnaXM6WS_Wv-39" target="ceVRnK8p8HnaXM6WS_Wv-42" edge="1">
          <mxGeometry relative="1" as="geometry">
            <mxPoint x="370" y="280" as="sourcePoint" />
            <mxPoint x="470" y="280" as="targetPoint" />
            <Array as="points" />
          </mxGeometry>
        </mxCell>
        <mxCell id="ceVRnK8p8HnaXM6WS_Wv-49" value="" style="ellipse;whiteSpace=wrap;html=1;aspect=fixed;" parent="1" vertex="1">
          <mxGeometry x="50" y="610" width="30" height="30" as="geometry" />
        </mxCell>
        <mxCell id="ceVRnK8p8HnaXM6WS_Wv-52" value="Add/Edit&lt;br&gt;" style="text;strokeColor=none;fillColor=none;html=1;fontSize=24;fontStyle=1;verticalAlign=middle;align=center;" parent="1" vertex="1">
          <mxGeometry x="140" y="600" width="90" height="40" as="geometry" />
        </mxCell>
        <mxCell id="ceVRnK8p8HnaXM6WS_Wv-53" value="" style="rounded=0;whiteSpace=wrap;html=1;" parent="1" vertex="1">
          <mxGeometry x="285" y="610" width="60" height="30" as="geometry" />
        </mxCell>
        <mxCell id="ceVRnK8p8HnaXM6WS_Wv-54" value="Save" style="text;strokeColor=none;align=center;fillColor=none;html=1;verticalAlign=middle;whiteSpace=wrap;rounded=0;" parent="1" vertex="1">
          <mxGeometry x="285" y="610" width="60" height="30" as="geometry" />
        </mxCell>
        <mxCell id="ceVRnK8p8HnaXM6WS_Wv-55" value="" style="verticalLabelPosition=bottom;verticalAlign=top;html=1;shape=mxgraph.basic.rect;fillColor2=none;strokeWidth=1;size=20;indent=5;" parent="1" vertex="1">
          <mxGeometry x="40" y="660" width="320" height="170" as="geometry" />
        </mxCell>
        <mxCell id="ceVRnK8p8HnaXM6WS_Wv-56" value="Browse Image" style="text;strokeColor=none;align=center;fillColor=none;html=1;verticalAlign=middle;whiteSpace=wrap;rounded=0;" parent="1" vertex="1">
          <mxGeometry x="105" y="730" width="190" height="30" as="geometry" />
        </mxCell>
        <mxCell id="ceVRnK8p8HnaXM6WS_Wv-58" value="" style="rounded=0;whiteSpace=wrap;html=1;" parent="1" vertex="1">
          <mxGeometry x="50" y="850" width="300" height="30" as="geometry" />
        </mxCell>
        <mxCell id="ceVRnK8p8HnaXM6WS_Wv-59" value="Enter type of document or $ amount of claim" style="text;strokeColor=none;align=left;fillColor=none;html=1;verticalAlign=middle;whiteSpace=wrap;rounded=0;" parent="1" vertex="1">
          <mxGeometry x="59" y="850" width="290" height="30" as="geometry" />
        </mxCell>
        <mxCell id="ceVRnK8p8HnaXM6WS_Wv-60" value="Enter type of document or $ amount of claim" style="text;strokeColor=none;align=left;fillColor=none;html=1;verticalAlign=middle;whiteSpace=wrap;rounded=0;" parent="1" vertex="1">
          <mxGeometry x="50" y="890" width="290" height="80" as="geometry" />
        </mxCell>
        <mxCell id="ceVRnK8p8HnaXM6WS_Wv-62" value="" style="rounded=0;whiteSpace=wrap;html=1;" parent="1" vertex="1">
          <mxGeometry x="50" y="890" width="300" height="100" as="geometry" />
        </mxCell>
        <mxCell id="ceVRnK8p8HnaXM6WS_Wv-63" value="Enter additional notes&lt;br&gt;" style="text;strokeColor=none;align=left;fillColor=none;html=1;verticalAlign=middle;whiteSpace=wrap;rounded=0;" parent="1" vertex="1">
          <mxGeometry x="60" y="925" width="290" height="30" as="geometry" />
        </mxCell>
        <mxCell id="ceVRnK8p8HnaXM6WS_Wv-64" value="X" style="text;strokeColor=none;align=center;fillColor=none;html=1;verticalAlign=middle;whiteSpace=wrap;rounded=0;" parent="1" vertex="1">
          <mxGeometry x="35" y="610" width="60" height="30" as="geometry" />
        </mxCell>
        <mxCell id="ceVRnK8p8HnaXM6WS_Wv-65" value="" style="endArrow=classic;html=1;rounded=0;exitX=0.883;exitY=0.05;exitDx=0;exitDy=0;exitPerimeter=0;" parent="1" source="FwdonJgzTYgUH80v2TEw-29" target="ceVRnK8p8HnaXM6WS_Wv-23" edge="1">
          <mxGeometry width="50" height="50" relative="1" as="geometry">
            <mxPoint x="460" y="460" as="sourcePoint" />
            <mxPoint x="450" y="550" as="targetPoint" />
            <Array as="points">
              <mxPoint x="460" y="470" />
            </Array>
          </mxGeometry>
        </mxCell>
        <mxCell id="ceVRnK8p8HnaXM6WS_Wv-66" value="" style="strokeWidth=2;html=1;shape=mxgraph.flowchart.database;whiteSpace=wrap;" parent="1" vertex="1">
          <mxGeometry x="390" y="480" width="60" height="60" as="geometry" />
        </mxCell>
        <mxCell id="ceVRnK8p8HnaXM6WS_Wv-67" value="" style="rounded=0;whiteSpace=wrap;html=1;" parent="1" vertex="1">
          <mxGeometry x="140" y="730" width="110" height="30" as="geometry" />
        </mxCell>
        <mxCell id="ceVRnK8p8HnaXM6WS_Wv-68" value="Browse image" style="text;strokeColor=none;align=center;fillColor=none;html=1;verticalAlign=middle;whiteSpace=wrap;rounded=0;" parent="1" vertex="1">
          <mxGeometry x="155" y="730" width="80" height="30" as="geometry" />
        </mxCell>
        <mxCell id="ceVRnK8p8HnaXM6WS_Wv-71" value="" style="ellipse;whiteSpace=wrap;html=1;" parent="1" vertex="1">
          <mxGeometry x="575" y="590" width="120" height="50" as="geometry" />
        </mxCell>
        <mxCell id="ceVRnK8p8HnaXM6WS_Wv-72" value="Start upload&lt;br&gt;" style="text;strokeColor=none;align=center;fillColor=none;html=1;verticalAlign=middle;whiteSpace=wrap;rounded=0;" parent="1" vertex="1">
          <mxGeometry x="595" y="600" width="80" height="30" as="geometry" />
        </mxCell>
        <mxCell id="ceVRnK8p8HnaXM6WS_Wv-73" value="" style="rounded=0;whiteSpace=wrap;html=1;" parent="1" vertex="1">
          <mxGeometry x="520" y="680" width="230" height="60" as="geometry" />
        </mxCell>
        <mxCell id="FwdonJgzTYgUH80v2TEw-7" value="" style="edgeStyle=orthogonalEdgeStyle;rounded=0;orthogonalLoop=1;jettySize=auto;html=1;" edge="1" parent="1" source="ceVRnK8p8HnaXM6WS_Wv-74" target="ceVRnK8p8HnaXM6WS_Wv-84">
          <mxGeometry relative="1" as="geometry" />
        </mxCell>
        <mxCell id="ceVRnK8p8HnaXM6WS_Wv-74" value="" style="rhombus;whiteSpace=wrap;html=1;" parent="1" vertex="1">
          <mxGeometry x="595" y="790" width="80" height="80" as="geometry" />
        </mxCell>
        <mxCell id="ceVRnK8p8HnaXM6WS_Wv-75" value="" style="edgeStyle=elbowEdgeStyle;elbow=horizontal;endArrow=classic;html=1;curved=0;rounded=0;endSize=8;startSize=8;entryX=1.013;entryY=0.212;entryDx=0;entryDy=0;entryPerimeter=0;" parent="1" source="ceVRnK8p8HnaXM6WS_Wv-6" target="ceVRnK8p8HnaXM6WS_Wv-55" edge="1">
          <mxGeometry width="50" height="50" relative="1" as="geometry">
            <mxPoint x="420" y="330" as="sourcePoint" />
            <mxPoint x="450" y="500" as="targetPoint" />
            <Array as="points">
              <mxPoint x="380" y="300" />
            </Array>
          </mxGeometry>
        </mxCell>
        <mxCell id="ceVRnK8p8HnaXM6WS_Wv-78" value="" style="ellipse;whiteSpace=wrap;html=1;" parent="1" vertex="1">
          <mxGeometry x="575" y="925" width="120" height="50" as="geometry" />
        </mxCell>
        <mxCell id="ceVRnK8p8HnaXM6WS_Wv-79" value="End" style="text;strokeColor=none;align=center;fillColor=none;html=1;verticalAlign=middle;whiteSpace=wrap;rounded=0;" parent="1" vertex="1">
          <mxGeometry x="595" y="935" width="80" height="30" as="geometry" />
        </mxCell>
        <mxCell id="ceVRnK8p8HnaXM6WS_Wv-81" value="" style="rounded=0;whiteSpace=wrap;html=1;" parent="1" vertex="1">
          <mxGeometry x="720" y="800" width="120" height="60" as="geometry" />
        </mxCell>
        <mxCell id="ceVRnK8p8HnaXM6WS_Wv-82" value="" style="rounded=0;whiteSpace=wrap;html=1;" parent="1" vertex="1">
          <mxGeometry x="440" y="800" width="120" height="60" as="geometry" />
        </mxCell>
        <mxCell id="ceVRnK8p8HnaXM6WS_Wv-83" value="API Service&lt;br&gt;" style="text;strokeColor=none;align=center;fillColor=none;html=1;verticalAlign=middle;whiteSpace=wrap;rounded=0;" parent="1" vertex="1">
          <mxGeometry x="590" y="695" width="100" height="30" as="geometry" />
        </mxCell>
        <mxCell id="ceVRnK8p8HnaXM6WS_Wv-84" value="Show error message" style="text;strokeColor=none;align=center;fillColor=none;html=1;verticalAlign=middle;whiteSpace=wrap;rounded=0;" parent="1" vertex="1">
          <mxGeometry x="445" y="817.5" width="110" height="25" as="geometry" />
        </mxCell>
        <mxCell id="ceVRnK8p8HnaXM6WS_Wv-85" value="Show success message" style="text;strokeColor=none;align=center;fillColor=none;html=1;verticalAlign=middle;whiteSpace=wrap;rounded=0;" parent="1" vertex="1">
          <mxGeometry x="730" y="815" width="110" height="30" as="geometry" />
        </mxCell>
        <mxCell id="ceVRnK8p8HnaXM6WS_Wv-87" value="" style="endArrow=classic;html=1;rounded=0;" parent="1" source="ceVRnK8p8HnaXM6WS_Wv-41" edge="1">
          <mxGeometry width="50" height="50" relative="1" as="geometry">
            <mxPoint x="400" y="810" as="sourcePoint" />
            <mxPoint x="680" y="550" as="targetPoint" />
          </mxGeometry>
        </mxCell>
        <mxCell id="FwdonJgzTYgUH80v2TEw-3" value="" style="endArrow=classic;html=1;rounded=0;exitX=0.5;exitY=1;exitDx=0;exitDy=0;entryX=0.5;entryY=0;entryDx=0;entryDy=0;" edge="1" parent="1" source="ceVRnK8p8HnaXM6WS_Wv-71" target="ceVRnK8p8HnaXM6WS_Wv-73">
          <mxGeometry width="50" height="50" relative="1" as="geometry">
            <mxPoint x="400" y="690" as="sourcePoint" />
            <mxPoint x="450" y="640" as="targetPoint" />
          </mxGeometry>
        </mxCell>
        <mxCell id="FwdonJgzTYgUH80v2TEw-4" value="" style="endArrow=classic;html=1;rounded=0;entryX=0.5;entryY=0;entryDx=0;entryDy=0;exitX=0.5;exitY=1;exitDx=0;exitDy=0;" edge="1" parent="1" source="ceVRnK8p8HnaXM6WS_Wv-73" target="ceVRnK8p8HnaXM6WS_Wv-74">
          <mxGeometry width="50" height="50" relative="1" as="geometry">
            <mxPoint x="420" y="760" as="sourcePoint" />
            <mxPoint x="470" y="710" as="targetPoint" />
          </mxGeometry>
        </mxCell>
        <mxCell id="FwdonJgzTYgUH80v2TEw-5" value="" style="endArrow=classic;html=1;rounded=0;entryX=0;entryY=0.5;entryDx=0;entryDy=0;exitX=1;exitY=0.5;exitDx=0;exitDy=0;" edge="1" parent="1" source="ceVRnK8p8HnaXM6WS_Wv-74" target="ceVRnK8p8HnaXM6WS_Wv-81">
          <mxGeometry width="50" height="50" relative="1" as="geometry">
            <mxPoint x="400" y="690" as="sourcePoint" />
            <mxPoint x="450" y="640" as="targetPoint" />
          </mxGeometry>
        </mxCell>
        <mxCell id="FwdonJgzTYgUH80v2TEw-9" value="" style="endArrow=classic;html=1;rounded=0;entryX=0.075;entryY=0.18;entryDx=0;entryDy=0;entryPerimeter=0;exitX=0.5;exitY=1;exitDx=0;exitDy=0;" edge="1" parent="1" source="ceVRnK8p8HnaXM6WS_Wv-82" target="ceVRnK8p8HnaXM6WS_Wv-78">
          <mxGeometry width="50" height="50" relative="1" as="geometry">
            <mxPoint x="400" y="690" as="sourcePoint" />
            <mxPoint x="450" y="640" as="targetPoint" />
          </mxGeometry>
        </mxCell>
        <mxCell id="FwdonJgzTYgUH80v2TEw-10" value="" style="endArrow=classic;html=1;rounded=0;entryX=0.942;entryY=0.26;entryDx=0;entryDy=0;entryPerimeter=0;exitX=0.642;exitY=1.033;exitDx=0;exitDy=0;exitPerimeter=0;" edge="1" parent="1" source="ceVRnK8p8HnaXM6WS_Wv-81" target="ceVRnK8p8HnaXM6WS_Wv-78">
          <mxGeometry width="50" height="50" relative="1" as="geometry">
            <mxPoint x="400" y="690" as="sourcePoint" />
            <mxPoint x="450" y="640" as="targetPoint" />
          </mxGeometry>
        </mxCell>
        <mxCell id="FwdonJgzTYgUH80v2TEw-11" value="" style="strokeWidth=2;html=1;shape=mxgraph.flowchart.database;whiteSpace=wrap;" vertex="1" parent="1">
          <mxGeometry x="715" y="875" width="60" height="60" as="geometry" />
        </mxCell>
        <mxCell id="FwdonJgzTYgUH80v2TEw-12" value="Succeeded?" style="text;strokeColor=none;align=center;fillColor=none;html=1;verticalAlign=middle;whiteSpace=wrap;rounded=0;" vertex="1" parent="1">
          <mxGeometry x="595" y="815" width="80" height="30" as="geometry" />
        </mxCell>
        <mxCell id="FwdonJgzTYgUH80v2TEw-13" value="Yes&lt;br&gt;" style="text;strokeColor=none;align=center;fillColor=none;html=1;verticalAlign=middle;whiteSpace=wrap;rounded=0;" vertex="1" parent="1">
          <mxGeometry x="675" y="805" width="45" height="30" as="geometry" />
        </mxCell>
        <mxCell id="FwdonJgzTYgUH80v2TEw-15" value="No&lt;br&gt;" style="text;strokeColor=none;align=center;fillColor=none;html=1;verticalAlign=middle;whiteSpace=wrap;rounded=0;" vertex="1" parent="1">
          <mxGeometry x="555" y="800" width="45" height="30" as="geometry" />
        </mxCell>
        <mxCell id="FwdonJgzTYgUH80v2TEw-16" style="edgeStyle=orthogonalEdgeStyle;rounded=0;orthogonalLoop=1;jettySize=auto;html=1;exitX=0.5;exitY=1;exitDx=0;exitDy=0;entryX=0;entryY=1;entryDx=0;entryDy=0;" edge="1" parent="1" source="FwdonJgzTYgUH80v2TEw-15" target="FwdonJgzTYgUH80v2TEw-15">
          <mxGeometry relative="1" as="geometry" />
        </mxCell>
        <mxCell id="FwdonJgzTYgUH80v2TEw-19" value="" style="ellipse;whiteSpace=wrap;html=1;aspect=fixed;" vertex="1" parent="1">
          <mxGeometry x="490" y="90" width="30" height="30" as="geometry" />
        </mxCell>
        <mxCell id="FwdonJgzTYgUH80v2TEw-20" value="&amp;lt;" style="text;strokeColor=none;align=center;fillColor=none;html=1;verticalAlign=middle;whiteSpace=wrap;rounded=0;" vertex="1" parent="1">
          <mxGeometry x="475" y="90" width="60" height="30" as="geometry" />
        </mxCell>
        <mxCell id="FwdonJgzTYgUH80v2TEw-23" value="" style="endArrow=classic;html=1;rounded=0;" edge="1" parent="1" source="FwdonJgzTYgUH80v2TEw-25" target="ceVRnK8p8HnaXM6WS_Wv-2">
          <mxGeometry width="50" height="50" relative="1" as="geometry">
            <mxPoint x="420" y="480" as="sourcePoint" />
            <mxPoint x="420" y="370" as="targetPoint" />
          </mxGeometry>
        </mxCell>
        <mxCell id="FwdonJgzTYgUH80v2TEw-26" value="" style="endArrow=classic;html=1;rounded=0;" edge="1" parent="1" target="FwdonJgzTYgUH80v2TEw-25">
          <mxGeometry width="50" height="50" relative="1" as="geometry">
            <mxPoint x="420" y="480" as="sourcePoint" />
            <mxPoint x="360" y="431" as="targetPoint" />
          </mxGeometry>
        </mxCell>
        <mxCell id="FwdonJgzTYgUH80v2TEw-25" value="Add&lt;br&gt;" style="text;strokeColor=none;align=center;fillColor=none;html=1;verticalAlign=middle;whiteSpace=wrap;rounded=0;" vertex="1" parent="1">
          <mxGeometry x="380" y="440" width="30" height="30" as="geometry" />
        </mxCell>
        <mxCell id="FwdonJgzTYgUH80v2TEw-28" value="" style="endArrow=classic;html=1;rounded=0;exitX=0.5;exitY=0;exitDx=0;exitDy=0;entryX=0.117;entryY=0.967;entryDx=0;entryDy=0;entryPerimeter=0;" edge="1" parent="1" source="ceVRnK8p8HnaXM6WS_Wv-54" target="ceVRnK8p8HnaXM6WS_Wv-66">
          <mxGeometry width="50" height="50" relative="1" as="geometry">
            <mxPoint x="400" y="610" as="sourcePoint" />
            <mxPoint x="450" y="560" as="targetPoint" />
          </mxGeometry>
        </mxCell>
        <mxCell id="FwdonJgzTYgUH80v2TEw-30" value="" style="endArrow=classic;html=1;rounded=0;exitX=0.883;exitY=0.05;exitDx=0;exitDy=0;exitPerimeter=0;" edge="1" parent="1" source="ceVRnK8p8HnaXM6WS_Wv-66" target="FwdonJgzTYgUH80v2TEw-29">
          <mxGeometry width="50" height="50" relative="1" as="geometry">
            <mxPoint x="443" y="483" as="sourcePoint" />
            <mxPoint x="480" y="451" as="targetPoint" />
            <Array as="points" />
          </mxGeometry>
        </mxCell>
        <mxCell id="FwdonJgzTYgUH80v2TEw-29" value="Edit&lt;br&gt;" style="text;strokeColor=none;align=center;fillColor=none;html=1;verticalAlign=middle;whiteSpace=wrap;rounded=0;" vertex="1" parent="1">
          <mxGeometry x="445" y="460" width="30" height="30" as="geometry" />
        </mxCell>
      </root>
    </mxGraphModel>
  </diagram>
</mxfile>
